<?xml version="1.0" encoding="iso-8859-1"?>
<!-- Generator: Adobe Illustrator 16.0.0, SVG Export Plug-In . SVG Version: 6.00 Build 0)  -->
<!DOCTYPE svg PUBLIC "-//W3C//DTD SVG 1.1//EN" "http://www.w3.org/Graphics/SVG/1.1/DTD/svg11.dtd">
<svg version="1.1" id="Capa_1" xmlns="http://www.w3.org/2000/svg" xmlns:xlink="http://www.w3.org/1999/xlink" x="0px" y="0px"
	 width="615.434px" height="615.434px" viewBox="0 0 615.434 615.434" style="enable-background:new 0 0 615.434 615.434;"
	 xml:space="preserve">
<g>
	<path d="M337.198,615.434h-57.521c-16.962,0-30.78-13.818-30.78-30.781v-68.57c0-2.654-2.914-6.605-5.452-7.385l-35.829-14.279
		c-4.067-1.934-8.885-0.809-10.558,0.865l-46.387,46.387c-11.597,11.596-31.906,11.596-43.531,0l-40.675-40.676
		c-12-12-12-31.502,0-43.502l46.329-46.328c1.904-1.904,2.683-6.838,1.442-9.26l-14.135-34.676
		c-1.211-3.664-5.192-6.605-7.875-6.605H32.511c-16.991,0-30.809-13.789-30.809-30.752V272.32c0-16.962,13.818-30.78,30.78-30.78
		H93.61c2.77,0,6.866-3,7.731-5.596l10.183-25.011c1.702-3.491,0.866-8.568-1.096-10.559l-40.963-40.963c-12-12-12-31.53,0-43.531
		l40.675-40.675c11.625-11.626,31.934-11.597,43.531,0l39.492,39.492c1.414,1.442,6.75,2.51,9,1.327l40.127-16.645
		c3.779-1.24,6.692-5.221,6.692-7.904V30.78C248.896,13.818,262.714,0,279.677,0h57.521c16.963,0,30.781,13.818,30.781,30.78v62.974
		c0,2.827,3.028,7.067,5.711,7.962l26.857,11.337c3.52,1.702,8.567,0.75,10.241-0.923l43.473-43.444
		c11.568-11.597,31.905-11.626,43.531,0l40.675,40.675c5.799,5.798,9,13.529,9,21.751s-3.173,15.981-8.971,21.78l-43.301,43.3
		c-1.903,1.904-2.653,6.779-1.413,9.173l12.52,29.482c1.27,3.664,5.452,6.692,8.251,6.692h68.396
		c16.963,0,30.781,13.818,30.781,30.78v57.521c0,16.963-13.818,30.781-30.781,30.781h-67.013c-2.711,0-6.75,2.941-7.587,5.539
		l-17.135,40.617c-1.847,3.547-1.183,8.25,0.663,10.096l49.099,49.1c5.799,5.77,9,13.5,9,21.721c0,8.252-3.201,15.982-9,21.781
		l-40.675,40.674c-11.568,11.598-31.905,11.627-43.531,0l-51.406-51.406c-1.76-1.76-8.77-2.076-9.722-1.615l-21.087,8.568
		c-3.52,1.211-6.52,5.336-6.52,8.105v70.82C367.979,601.615,354.189,615.434,337.198,615.434z M203.26,464.416
		c5.856,0,11.51,1.299,16.328,3.809l33.463,13.299c13.616,4.152,24.693,19.184,24.693,34.559v68.57l59.454,1.934
		c1.039,0,1.934-0.895,1.934-1.934v-70.82c0-15.26,10.933-30.377,25.443-35.166l19.27-7.816c10.588-5.309,31.531-2.799,41.858,7.529
		l51.406,51.406l43.415-40.676l-49.099-51.811c-10.933-10.932-13.615-29.424-6.23-43.012l16.068-38.107
		c4.211-13.355,19.27-24.375,34.616-24.375h67.013l1.934-59.456l-70.331-1.933c-15.26,0-30.405-10.904-35.223-25.357l-11.597-27.376
		c-6.605-12.548-3.778-31.011,7.068-41.857l43.3-43.3l-40.675-43.387l-46.214,43.444c-10.472,10.472-29.627,13.443-42.896,6.577
		l-24.838-10.5c-13.414-4.529-24.261-19.703-24.261-34.905V30.78l-59.483-1.933l-1.933,62.657c0,15.375-11.049,30.434-25.732,34.992
		l-37.617,15.578c-3.635,2.02-9.404,3.433-15.405,3.433c-10.097,0-19.703-3.808-26.309-10.414l-39.463-39.492l-43.416,40.675
		l40.964,43.704c10.789,10.789,13.76,29.194,6.981,42.838l-9.347,23.049c-4.385,13.559-19.501,24.521-34.79,24.521H32.482
		l-1.933,59.483l61.647,1.934c15.376,0,30.434,11.049,35.021,25.73l13.212,32.367c6.491,12.404,3.635,30.867-7.212,41.715
		l-46.329,46.299l40.675,43.416l49.127-46.387C183.355,468.225,193.048,464.416,203.26,464.416z M304.053,454.578
		c-83.138,0-150.786-67.646-150.786-150.785s67.676-150.757,150.786-150.757c83.11,0,150.786,67.647,150.786,150.786
		C454.839,386.961,387.191,454.578,304.053,454.578z M304.053,181.883c-67.243,0-121.938,54.695-121.938,121.938
		c0,67.243,54.695,121.938,121.938,121.938c67.244,0,121.938-54.693,121.938-121.938
		C425.991,236.578,371.297,181.883,304.053,181.883z"/>
</g>
<g>
</g>
<g>
</g>
<g>
</g>
<g>
</g>
<g>
</g>
<g>
</g>
<g>
</g>
<g>
</g>
<g>
</g>
<g>
</g>
<g>
</g>
<g>
</g>
<g>
</g>
<g>
</g>
<g>
</g>
</svg>
